<svg version="1.0" xmlns="http://www.w3.org/2000/svg"
 width="300.000000pt" height="300.000000pt" viewBox="0 0 300.000000 300.000000"
 preserveAspectRatio="xMidYMid meet">
<metadata>
Created by potrace 1.10, written by Peter Selinger 2001-2011
</metadata>
<g transform="translate(0.000000,300.000000) scale(0.100000,-0.100000)"
fill="#8B5CF6" stroke="none">
<path d="M840 2787 c0 -13 -25 -63 -56 -112 -73 -117 -99 -169 -114 -234 -24
-100 8 -246 75 -352 43 -67 46 -40 6 39 -38 73 -71 170 -71 209 0 79 32 173
95 275 59 98 85 126 85 95 0 -7 17 -41 39 -74 82 -128 103 -235 71 -364 -11
-46 -27 -93 -35 -105 -22 -34 -54 -124 -45 -124 5 0 27 37 49 83 101 211 96
330 -22 525 -21 35 -43 86 -49 113 -12 51 -28 66 -28 26z"/>
<path d="M838 2428 c-2 -57 -3 -124 -2 -150 0 -27 -3 -48 -6 -48 -3 0 -30 25
-60 55 -46 46 -80 68 -80 51 0 -2 32 -35 70 -72 l70 -67 0 -106 c-1 -101 -1
-105 -16 -77 -10 18 -19 25 -25 19 -6 -6 -1 -28 14 -59 22 -44 25 -66 30 -216
3 -93 4 -168 2 -168 -3 0 -17 26 -32 58 -19 40 -55 85 -123 152 -250 248 -356
350 -363 350 -16 0 -4 -20 42 -71 27 -30 48 -55 46 -57 -1 -2 -28 8 -59 22
-30 14 -58 21 -61 16 -8 -13 16 -26 91 -50 63 -20 82 -33 170 -115 l99 -92
-72 -8 c-105 -10 -95 -30 11 -21 l84 7 35 -43 c69 -85 144 -255 136 -310 -1
-7 -1 -77 0 -156 1 -131 3 -143 19 -140 15 3 17 21 17 198 l0 195 32 68 c18
37 55 91 83 121 l50 53 80 7 c46 4 80 12 80 18 0 7 -23 9 -72 4 l-73 -6 62 59
c61 58 61 58 137 66 42 4 76 11 76 17 0 7 -23 8 -67 3 l-68 -7 104 105 c71 72
99 107 91 112 -9 5 -52 -32 -128 -109 -63 -64 -118 -114 -120 -111 -5 5 12
157 20 180 2 6 -1 12 -7 15 -13 7 -33 -89 -34 -164 l-1 -59 -103 -106 c-71
-73 -109 -121 -123 -153 -10 -27 -21 -48 -24 -48 -3 0 -5 48 -5 107 0 486 -6
833 -15 833 -6 0 -11 -42 -12 -102z"/>
<path d="M1524 2438 c-33 -37 -107 -78 -179 -99 -164 -49 -276 -141 -345 -283
-37 -78 -70 -210 -70 -280 l1 -31 14 25 c8 14 14 40 15 58 0 48 19 119 46 180
13 29 24 56 24 60 0 13 84 119 115 145 46 38 112 72 200 102 44 15 92 34 107
41 41 21 50 18 44 -18 -3 -18 -8 -96 -10 -174 -11 -298 -102 -444 -313 -499
-31 -8 -85 -15 -118 -15 -37 0 -69 -6 -80 -14 -17 -12 -12 -14 50 -10 139 9
173 16 233 44 169 80 252 251 252 522 0 110 17 209 39 231 13 13 14 37 3 37
-5 0 -17 -10 -28 -22z"/>
<path d="M176 2289 c9 -19 22 -87 30 -163 15 -153 25 -189 66 -259 57 -99 137
-166 232 -194 52 -16 216 -25 216 -12 0 11 -41 19 -102 19 -144 0 -275 85
-336 218 -36 77 -47 133 -57 271 l-6 94 23 -7 c13 -4 51 -13 84 -21 170 -38
291 -152 355 -335 38 -108 54 -93 20 18 -55 181 -214 315 -412 347 -21 3 -53
17 -73 30 -49 33 -60 31 -40 -6z"/>
</g>
</svg>
